# xmcd CD database file
#
# Track frame offsets:
#	150
#	6984
#	24291
#	49485
#	67054
#	89159
#	129046
#	157497
#	180330
#	203644
#	223866
#	241925
#	248441
#
# Disc length: 3554 seconds
#
# Revision: 2
# Processed by: cddbd v1.5.2PL0 Copyright (c) Steve Scherf et al.
# Submitted via: CDex 1.51
#
DISCID=b40de00d
DTITLE=Paul Hardcastle - Hardcastle 5
DYEAR=2008
DGENRE=Jazz
TTITLE0=In The Beginning
TTITLE1=Lucky Star
TTITLE2=Don't You Know
TTITLE3=Marimba
TTITLE4=Closer
TTITLE5=Return Of The Rainman
TTITLE6=Blew My Mind
TTITLE7=Constellation Of Dreams
TTITLE8=Don't You Know Pt 2
TTITLE9=Keep Movin On
TTITLE10=Revival
TTITLE11=Till The Next Time
TTITLE12=Take 1
EXTD=YEAR: 2008
EXTT0=
EXTT1=
EXTT2=
EXTT3=
EXTT4=
EXTT5=
EXTT6=
EXTT7=
EXTT8=
EXTT9=
EXTT10=
EXTT11=
EXTT12=
PLAYORDER=
